<?xml version="1.0" encoding="utf-8"?>
<!-- Generator: Adobe Illustrator 17.0.0, SVG Export Plug-In . SVG Version: 6.00 Build 0)  -->
<!DOCTYPE svg PUBLIC "-//W3C//DTD SVG 1.1//EN" "http://www.w3.org/Graphics/SVG/1.1/DTD/svg11.dtd">
<svg version="1.1" id="Layer_1" xmlns="http://www.w3.org/2000/svg" xmlns:xlink="http://www.w3.org/1999/xlink" x="0px" y="0px"
	 width="1024px" height="768px" viewBox="0 0 1024 768" enable-background="new 0 0 1024 768" xml:space="preserve">
<g>
	<path d="M843.539,452.711c-0.433-0.236-0.801-0.424-1.157-0.633c-46.801-27.406-82.187-72.52-96.589-126.548
		c-2.278-8.547-3.988-17.208-5.161-25.978c-1.185-8.855-1.769-17.749-1.846-26.679c-0.013-1.536-0.151-1.286,1.163-2.032
		c17.586-9.983,36.219-17.286,55.92-21.864c7.273-1.69,14.614-2.992,22.024-3.893c10.196-1.24,20.431-1.749,30.699-1.491
		c5.752,0.144,11.49,0.515,17.215,1.125c28.694,3.059,55.605,11.685,80.752,25.83c0.363,0.204,0.715,0.431,1.089,0.614
		c0.426,0.208,0.617,0.519,0.595,0.994c-0.023,0.499-0.003,1-0.01,1.5c-0.075,5.17-0.279,10.335-0.71,15.488
		c-0.62,7.399-1.611,14.748-3.013,22.04c-3.009,15.659-7.736,30.782-14.241,45.342c-10.328,23.117-24.394,43.687-42.161,61.724
		c-12.825,13.02-27.114,24.17-42.852,33.463C844.717,452.031,844.176,452.341,843.539,452.711z M748.408,277.983
		c0,0.492,0,0.865,0,1.238c0.006,7.344,0.485,14.66,1.363,21.949c0.792,6.582,1.936,13.106,3.418,19.569
		c0.262,1.14,0.615,2.23,1.116,3.296c8.973,19.098,29.765,29.253,50.382,24.586c15.721-3.559,28.457-15.674,32.831-31.182
		c1.21-4.288,1.622-8.671,1.758-13.095c0.09-2.922,0.364-5.82,0.912-8.693c3.354-17.568,15.104-32.083,31.559-38.969
		c0.922-0.386,1.863-0.726,2.791-1.097c0.131-0.052,0.342-0.069,0.28-0.31c-2.584-0.922-18.114-2.471-27.428-2.654
		c-19.984-0.394-39.567,2.232-58.718,7.973C774.606,264.81,761.214,270.59,748.408,277.983z M895.88,397.8
		c0.549-0.258,0.764-0.681,1.039-1.023c4.029-5.004,7.794-10.2,11.284-15.594c12.539-19.381,21.288-40.339,26.164-62.908
		c1.657-7.668,2.824-15.409,3.51-23.224c0.467-5.319,0.728-10.645,0.731-15.984c0-0.368-0.037-0.736-0.057-1.102
		c-0.519-0.305-0.98-0.587-1.45-0.852c-4.103-2.315-8.279-4.49-12.548-6.482c-6.157-2.872-12.401-5.531-18.893-7.567
		c-7.902-2.477-15.885-2.753-23.937-0.811c-22.921,5.527-37.569,27.962-33.229,51.127c2.406,12.845,9.297,22.754,20.348,29.75
		c0.739,0.468,1.495,0.91,2.242,1.367c8.074,4.941,14.401,11.558,18.921,19.87c4.753,8.742,6.891,18.096,6.341,28.043
		C896.25,394.154,896.048,395.892,895.88,397.8z M843.611,442.505c0.41-0.232,0.881-0.49,1.343-0.762
		c12.597-7.408,24.162-16.183,34.771-26.227c0.677-0.641,1.2-1.382,1.619-2.204c0.68-1.337,1.372-2.669,2.023-4.021
		c5.02-10.435,6.096-21.246,2.766-32.359c-6.474-21.606-27.306-34.004-48.165-31.397c-5.96,0.745-11.538,2.643-16.738,5.564
		c-9.94,5.584-20.541,7.885-31.883,6.801c-5.565-0.532-10.898-1.954-16.014-4.199c-4.029-1.768-7.769-4.018-11.242-6.718
		c-0.242-0.188-0.514-0.336-0.964-0.628c0.149,0.496,0.21,0.77,0.312,1.029c4.455,11.367,9.974,22.194,16.535,32.49
		c7.082,11.114,15.234,21.381,24.444,30.806c9.211,9.425,19.292,17.806,30.234,25.149
		C837.466,439.057,842.13,441.906,843.611,442.505z"/>
	<path fill="#F7A800" d="M748.408,277.983c12.806-7.392,26.198-13.173,40.263-17.389c19.151-5.741,38.735-8.367,58.718-7.973
		c9.314,0.184,24.844,1.732,27.428,2.654c0.062,0.241-0.149,0.257-0.28,0.31c-0.928,0.37-1.869,0.711-2.791,1.097
		c-16.455,6.886-28.205,21.401-31.559,38.969c-0.548,2.873-0.823,5.771-0.912,8.693c-0.136,4.424-0.548,8.807-1.758,13.095
		c-4.374,15.508-17.11,27.623-32.831,31.182c-20.617,4.667-41.408-5.488-50.382-24.586c-0.501-1.067-0.854-2.156-1.116-3.296
		c-1.482-6.464-2.626-12.987-3.418-19.569c-0.877-7.289-1.357-14.605-1.363-21.949C748.408,278.848,748.408,278.474,748.408,277.983
		z"/>
	<path fill="#67B2E8" d="M895.88,397.8c0.168-1.908,0.37-3.646,0.466-5.389c0.55-9.947-1.587-19.301-6.341-28.043
		c-4.52-8.313-10.847-14.929-18.921-19.87c-0.746-0.457-1.502-0.899-2.242-1.367c-11.051-6.996-17.942-16.905-20.348-29.75
		c-4.34-23.165,10.309-45.6,33.229-51.127c8.052-1.942,16.035-1.666,23.937,0.811c6.492,2.035,12.737,4.694,18.893,7.567
		c4.269,1.992,8.445,4.167,12.548,6.482c0.47,0.265,0.931,0.547,1.45,0.852c0.02,0.365,0.058,0.733,0.057,1.102
		c-0.003,5.339-0.264,10.665-0.731,15.984c-0.686,7.815-1.854,15.556-3.51,23.224c-4.876,22.569-13.625,43.527-26.164,62.908
		c-3.49,5.394-7.255,10.59-11.284,15.594C896.644,397.119,896.429,397.542,895.88,397.8z"/>
	<path fill="#00C4B3" d="M843.611,442.505c-1.481-0.599-6.145-3.447-10.959-6.678c-10.943-7.343-21.023-15.724-30.234-25.149
		c-9.211-9.425-17.363-19.691-24.444-30.806c-6.56-10.296-12.079-21.122-16.535-32.49c-0.101-0.259-0.163-0.533-0.312-1.029
		c0.451,0.292,0.723,0.44,0.964,0.628c3.473,2.7,7.214,4.95,11.242,6.718c5.116,2.246,10.449,3.668,16.014,4.199
		c11.342,1.084,21.943-1.217,31.883-6.801c5.201-2.921,10.778-4.819,16.738-5.564c20.859-2.607,41.691,9.792,48.165,31.397
		c3.33,11.113,2.254,21.924-2.766,32.359c-0.65,1.352-1.343,2.684-2.023,4.021c-0.418,0.822-0.942,1.564-1.619,2.204
		c-10.609,10.044-22.175,18.819-34.771,26.227C844.492,442.015,844.021,442.273,843.611,442.505z"/>
	<path d="M75.119,348.956h49.132v24.767c2.798-3.687,5.87-7.217,9.212-10.582c3.339-3.362,7.056-6.342,11.152-8.949
		c4.09-2.605,8.616-4.666,13.575-6.187c4.955-1.521,10.556-2.282,16.808-2.282c18.746,0,33.236,5.712,43.473,17.131
		c10.233,11.423,15.353,27.151,15.353,47.19v112.161h-49.13v-96.408c0-11.606-2.587-20.369-7.757-26.277
		c-5.172-5.91-12.501-8.87-21.981-8.87c-9.484,0-16.97,2.96-22.465,8.87c-5.493,5.908-8.242,14.671-8.242,26.277v96.408H75.119
		V348.956z"/>
	<path d="M354.988,526.084c-12.928,0-24.945-2.157-36.039-6.464c-11.102-4.309-20.687-10.45-28.767-18.425
		c-8.082-7.969-14.385-17.398-18.909-28.283c-4.526-10.879-6.789-22.999-6.789-36.363v-0.646c0-12.282,2.101-23.919,6.302-34.907
		c4.204-10.99,10.072-20.576,17.618-28.767c7.54-8.188,16.535-14.652,26.99-19.394c10.448-4.738,22.029-7.112,34.747-7.112
		c14.435,0,26.934,2.585,37.494,7.757c10.556,5.172,19.34,12.12,26.344,20.849c7,8.726,12.172,18.748,15.515,30.059
		c3.339,11.312,5.011,23.112,5.011,35.394c0,1.939-0.056,3.99-0.161,6.141c-0.112,2.157-0.273,4.419-0.484,6.789H313.293
		c2.368,11.206,7.271,19.667,14.706,25.373c7.435,5.712,16.647,8.565,27.637,8.565c8.186,0,15.515-1.397,21.979-4.202
		c6.466-2.798,13.141-7.323,20.041-13.576l28.12,24.889c-8.192,10.131-18.1,18.05-29.736,23.759
		C384.404,523.226,370.716,526.084,354.988,526.084z M386.666,422.004c-1.511-10.989-5.39-19.879-11.636-26.666
		c-6.253-6.789-14.546-10.183-24.889-10.183c-10.345,0-18.698,3.345-25.05,10.022c-6.358,6.681-10.506,15.626-12.445,26.827H386.666
		z"/>
	<path d="M465.163,348.956h49.132v24.767c2.798-3.687,5.87-7.217,9.212-10.582c3.339-3.362,7.056-6.342,11.152-8.949
		c4.09-2.605,8.67-4.666,13.737-6.187c5.061-1.521,10.717-2.282,16.97-2.282c11.419,0,21.277,2.388,29.575,7.161
		c8.294,4.778,14.708,11.61,19.232,20.51c7.54-9.111,15.945-16.005,25.212-20.671c9.264-4.666,19.824-7,31.677-7
		c18.313,0,32.646,5.39,42.989,16.161c10.345,10.779,15.517,26.617,15.517,47.515v112.806h-49.132v-96.408
		c0-11.606-2.479-20.369-7.435-26.277c-4.959-5.91-12.071-8.87-21.333-8.87c-9.268,0-16.541,2.96-21.819,8.87
		c-5.282,5.908-7.919,14.671-7.919,26.277v96.408h-49.13v-96.408c0-11.606-2.479-20.369-7.435-26.277
		c-4.959-5.91-12.071-8.87-21.333-8.87c-9.268,0-16.541,2.96-21.819,8.87c-5.282,5.908-7.919,14.671-7.919,26.277v96.408h-49.132
		V348.956z"/>
</g>
</svg>
