<?xml version="1.0" encoding="UTF-8"?>
<svg xmlns="http://www.w3.org/2000/svg" height="1000" width="897"><path d="M896.667 890.85l-895 0s-3.75 -11.25 0 -71.25c51.25 -26.25 292.5 -91.25 306.25 -97.5l1.25 -45 18.75 -5s7.5 -70 7.5 -81.25c0 0 -28.75 -56.25 -35 -88.75 0 0 -23.75 0 -26.25 -23.75 -3.75 -25 0 -41.25 -6.25 -60 -3.75 -17.5 10 -36.25 21.25 -32.5 0 0 -25 -128.75 0 -163.75 17.5 -25 71.25 -88.75 197.5 -111.25 0 0 31.25 -3.75 41.25 1.25 7.5 2.5 6.25 5 -8.75 21.25 0 0 65 40 86.25 103.75 12.5 40 7.5 126.25 0 148.75 0 0 18.75 -3.75 16.25 20 -3.75 38.75 -5 110 -32.5 96.25 0 0 -1.25 80 -25 96.25 0 0 -7.5 62.5 3.75 65l16.25 0s6.25 51.25 18.75 65c0 0 267.5 68.75 293.75 98.75 1.25 32.5 0 63.75 0 63.75z" fill="#000000"/></svg>
